<svg width="171" height="36" viewBox="0 0 171 36" fill="none" xmlns="http://www.w3.org/2000/svg">
<path d="M91.1241 9.8951C92.3964 9.8951 93.4278 8.86368 93.4278 7.59135C93.4278 6.31902 92.3964 5.2876 91.1241 5.2876C89.8517 5.2876 88.8203 6.31902 88.8203 7.59135C88.8203 8.86368 89.8517 9.8951 91.1241 9.8951Z" fill="#0D0536"/>
<path d="M54.7524 7.6001H50.9922V26.3488H54.7524V7.6001Z" fill="#0D0536"/>
<path d="M66.3165 11.2543C65.4364 11.246 64.5654 11.4335 63.7666 11.8031C63.0153 12.1494 62.3571 12.6694 61.8462 13.3201V11.4682H58.0859V26.3518H61.8462V18.1293C61.8462 16.9485 62.1461 16.0407 62.7459 15.4059C63.0651 15.0826 63.4489 14.8303 63.8723 14.6655C64.2957 14.5007 64.7492 14.4272 65.203 14.4497C65.6513 14.4272 66.0993 14.5009 66.5168 14.6659C66.9343 14.8308 67.3118 15.0831 67.6237 15.4059C68.2128 16.0407 68.5073 16.9485 68.5073 18.1293V26.3518H72.2393V17.6209C72.2393 15.6171 71.6919 14.0544 70.5972 12.9327C70.0381 12.3727 69.3692 11.9345 68.6325 11.6456C67.8958 11.3568 67.1072 11.2235 66.3165 11.2543Z" fill="#0D0536"/>
<path d="M86.7626 22.1063C86.7652 22.9309 86.5083 23.7354 86.0283 24.406C85.5291 25.1021 84.846 25.6455 84.0554 25.9754L83.9868 26.0077C83.0028 26.4093 81.9468 26.6043 80.8842 26.5806C79.935 26.5945 78.9908 26.4388 78.0963 26.1207C77.9303 26.0632 77.7674 25.9972 77.6082 25.923C76.7038 25.5333 75.9137 24.9196 75.3125 24.1397C75.1638 23.9421 75.029 23.7345 74.909 23.5184L78.2416 21.9852C78.3733 22.4246 78.6454 22.8086 79.0162 23.0786C79.5506 23.4705 80.202 23.6696 80.8641 23.6434C81.4553 23.6733 82.041 23.5167 82.5384 23.1956C82.5955 23.1568 82.6494 23.1136 82.6998 23.0665C82.8366 22.9469 82.946 22.7992 83.0205 22.6335C83.095 22.4678 83.1329 22.288 83.1315 22.1063C83.1319 21.8716 83.0617 21.6422 82.93 21.448C82.7983 21.2537 82.6113 21.1035 82.3932 21.0169C82.131 20.8896 81.8616 20.7778 81.5863 20.6821L81.2595 20.5731C81.0174 20.4965 80.7511 20.4198 80.4525 20.3351L80.0491 20.2221C79.1208 20.0122 78.2093 19.7344 77.3217 19.391C76.6156 19.1058 75.9887 18.6547 75.494 18.0757C74.9572 17.3991 74.686 16.5497 74.7315 15.6872C74.7243 14.8781 74.9728 14.0874 75.4416 13.4279C75.9585 12.7103 76.6656 12.1514 77.4831 11.814C77.7236 11.7081 77.9701 11.6165 78.2214 11.5397C78.9992 11.3176 79.8052 11.2103 80.6139 11.2209C81.4832 11.2106 82.348 11.347 83.1719 11.6244C83.7876 11.8301 84.3595 12.1489 84.8583 12.5645C85.4317 13.0359 85.8841 13.6377 86.1776 14.3195L82.95 15.8244C82.8506 15.3934 82.6072 15.0092 82.26 14.7351C81.7517 14.3661 81.1323 14.1824 80.505 14.2146C80.1704 14.2093 79.8366 14.2487 79.5125 14.3316C79.3052 14.3887 79.1079 14.4771 78.9275 14.5939C78.7528 14.705 78.6102 14.8599 78.5139 15.0432C78.4177 15.2266 78.3711 15.4319 78.3788 15.6388C78.3774 15.8824 78.4483 16.121 78.5826 16.3243C78.7169 16.5275 78.9086 16.6864 79.1332 16.7806C79.6786 17.0406 80.2473 17.2487 80.8318 17.4019L81.4693 17.5754C82.3753 17.7896 83.2651 18.0673 84.1321 18.4065C84.8343 18.696 85.4549 19.1531 85.9396 19.738C86.4864 20.4046 86.7782 21.2441 86.7626 22.1063Z" fill="#0D0536"/>
<path d="M93.0063 11.4688H89.2461V26.3524H93.0063V11.4688Z" fill="#0D0536"/>
<path d="M125.296 11.9925C124.375 11.49 123.339 11.2356 122.29 11.2541C121.365 11.2403 120.448 11.4275 119.603 11.8028C118.84 12.1369 118.174 12.6588 117.666 13.3199V5.29102H113.906V26.3516H117.666V18.1291C117.666 16.9469 117.969 16.0392 118.566 15.4057C118.886 15.0819 119.27 14.8293 119.695 14.6645C120.119 14.4997 120.573 14.4264 121.027 14.4495C121.476 14.4262 121.924 14.4996 122.342 14.6645C122.759 14.8295 123.137 15.0823 123.448 15.4057C124.037 16.0392 124.336 16.9469 124.336 18.1291V26.3516H128.096V17.6207C128.129 16.4271 127.876 15.2429 127.358 14.1671C126.904 13.2517 126.186 12.4939 125.296 11.9925Z" fill="#0D0536"/>
<path d="M135.286 7.02344L131.498 8.55658V11.4696H129.727V14.5601H131.498V21.7336C131.498 24.8106 133.082 26.3505 136.25 26.3532H138.615V23.1981H136.872C136.441 23.2358 136.011 23.1169 135.661 22.8632C135.529 22.7168 135.428 22.5443 135.365 22.3568C135.303 22.1692 135.28 21.9707 135.298 21.7739V14.5601H138.627V11.4696H135.298L135.286 7.02344Z" fill="#0D0536"/>
<path d="M145.32 10.852C145.32 10.0087 145.497 9.42776 145.856 9.10499C146.215 8.78222 146.849 8.63294 147.765 8.64908V5.47789C145.667 5.4241 144.099 5.82756 143.06 6.68827C142.022 7.54898 141.503 8.89385 141.503 10.7229V11.4733H139.812V14.5638H141.503V26.3529H145.32V14.5598H147.926V11.4693H145.32V10.852Z" fill="#0D0536"/>
<path d="M159.986 19.663C159.986 20.8451 159.688 21.7529 159.099 22.3904C158.782 22.7135 158.4 22.9655 157.979 23.1297C157.557 23.2939 157.106 23.3664 156.654 23.3425C156.206 23.3658 155.758 23.2929 155.34 23.1287C154.923 22.9644 154.545 22.7127 154.233 22.3904C153.633 21.7529 153.333 20.8438 153.333 19.663V11.4688H149.573V20.1996C149.54 21.3873 149.804 22.5645 150.34 23.625C150.81 24.5429 151.543 25.3 152.446 25.7996C153.396 26.3053 154.46 26.5595 155.536 26.5379C156.412 26.5465 157.279 26.359 158.074 25.9892C158.821 25.6467 159.472 25.1257 159.97 24.4722V26.3524H163.755V11.4688H159.97L159.986 19.663Z" fill="#0D0536"/>
<path d="M170.682 6.47314H166.922V26.3516H170.682V6.47314Z" fill="#0D0536"/>
<path d="M110.692 18.9053C110.691 17.2552 110.14 15.6524 109.127 14.3502L110.438 12.7929L107.791 10.5698L106.448 12.1837C105.434 11.6951 104.324 11.4414 103.199 11.4413C102.075 11.4412 100.964 11.6948 99.9511 12.1832C98.9378 12.6716 98.0478 13.3822 97.3472 14.2621C96.6465 15.142 96.1534 16.1686 95.9044 17.2655C95.6553 18.3624 95.6569 19.5013 95.9089 20.5975C96.161 21.6937 96.657 22.7189 97.36 23.5969C98.063 24.4749 98.955 25.183 99.9696 25.6686C100.984 26.1542 102.095 26.4047 103.22 26.4016C105.403 26.4016 107.255 27.8096 107.255 29.4719C107.255 31.1341 105.407 32.5422 103.22 32.5422C101.033 32.5422 99.1854 31.1382 99.1854 29.4719H95.7318C95.7318 33.0707 99.0886 35.9958 103.216 35.9958C107.343 35.9958 110.7 33.0707 110.7 29.4719C110.682 28.5088 110.439 27.5633 109.991 26.7103C109.544 25.8574 108.904 25.1203 108.122 24.5577C108.931 23.8549 109.579 22.9864 110.022 22.0111C110.465 21.0359 110.694 19.9766 110.692 18.9053ZM99.1773 18.9053C99.1773 18.1073 99.4139 17.3273 99.8573 16.6638C100.301 16.0003 100.931 15.4832 101.668 15.1778C102.405 14.8724 103.216 14.7925 103.999 14.9482C104.782 15.1039 105.501 15.4882 106.065 16.0524C106.629 16.6166 107.013 17.3355 107.169 18.1182C107.325 18.9008 107.245 19.712 106.939 20.4493C106.634 21.1865 106.117 21.8166 105.453 22.2599C104.79 22.7033 104.01 22.9399 103.212 22.9399C102.142 22.9399 101.116 22.5148 100.359 21.7582C99.6024 21.0015 99.1773 19.9753 99.1773 18.9053Z" fill="#0D0536"/>
<path d="M17.9922 2.42209C17.9922 1.08441 19.0766 0 20.4143 0C21.752 0 22.8364 1.08441 22.8364 2.42209C22.8364 3.75977 21.752 4.84418 20.4143 4.84418C19.0766 4.84418 17.9922 3.75977 17.9922 2.42209Z" fill="#00D2DA"/>
<path d="M17.9922 10.0349C17.9922 8.6972 19.0766 7.61279 20.4143 7.61279C21.752 7.61279 22.8364 8.6972 22.8364 10.0349V33.5638C22.8364 34.9015 21.752 35.9859 20.4143 35.9859C19.0766 35.9859 17.9922 34.9014 17.9922 33.5638V10.0349Z" fill="#746FFF"/>
<path d="M26.9883 18.3396C26.9883 17.0019 28.0727 15.9175 29.4104 15.9175C30.7481 15.9175 31.8325 17.0019 31.8325 18.3396V25.9519C31.8325 27.2895 30.7481 28.3739 29.4104 28.3739C28.0727 28.3739 26.9883 27.2895 26.9883 25.9519V18.3396Z" fill="#746FFF"/>
<path d="M8.99609 10.0349C8.99609 8.6972 10.0805 7.61279 11.4182 7.61279C12.7559 7.61279 13.8403 8.6972 13.8403 10.0349V17.6472C13.8403 18.9849 12.7559 20.0693 11.4182 20.0693C10.0805 20.0693 8.99609 18.9849 8.99609 17.6472V10.0349Z" fill="#746FFF"/>
<path d="M0 17.6472C0 16.3095 1.08441 15.2251 2.42209 15.2251C3.75977 15.2251 4.84418 16.3095 4.84418 17.6472C4.84418 18.9849 3.75977 20.0693 2.42209 20.0693C1.08441 20.0693 0 18.9849 0 17.6472Z" fill="#746FFF"/>
<path d="M35.9844 18.3396C35.9844 17.0019 37.0688 15.9175 38.4065 15.9175C39.7441 15.9175 40.8286 17.0019 40.8286 18.3396C40.8286 19.6773 39.7441 20.7617 38.4065 20.7617C37.0688 20.7617 35.9844 19.6773 35.9844 18.3396Z" fill="#746FFF"/>
</svg>
